<svg xmlns="http://www.w3.org/2000/svg" viewBox="0 0 800 500"><defs><pattern id="grain" width="7" height="7" patternUnits="userSpaceOnUse"><path d="M0 2h2m3 3h1" stroke="#68583d" opacity=".11"/></pattern><pattern id="stone" width="38" height="22" patternUnits="userSpaceOnUse"><path d="M0 0h38v22H0zM19 0v11M0 11h38" fill="none" stroke="#6e6954" stroke-width=".7" opacity=".45"/></pattern><linearGradient id="sky" x2="0" y2="1"><stop stop-color="#bfc5b3"/><stop offset="1" stop-color="#e5d8b7"/></linearGradient><linearGradient id="paper" x2="1" y2="1"><stop stop-color="#e7d9b8"/><stop offset="1" stop-color="#beaa80"/></linearGradient><pattern id="hatch" width="6" height="6" patternUnits="userSpaceOnUse"><path d="M-1 1 1-1M0 6 6 0M5 7 7 5" stroke="#463d28" stroke-width=".6"/></pattern></defs><g stroke="#5c4b36" stroke-width="4"><path d="M180 108h440l-220-55z" fill="#886c48"/><path d="M180 108h440l-220-55z" fill="url(#hatch)" opacity=".26" stroke="none"/><path d="M200 108v329m400-329v329" stroke-width="14"/><path d="M200 108h180l-115 132-65 80zm400 0H420l115 132 65 80z" fill="#704337"/><path d="M200 108h180l-115 132-65 80zm400 0H420l115 132 65 80z" fill="url(#hatch)" opacity=".26" stroke="none"/><path d="M228 315q172-100 344 0v100H228z" fill="#ded0a7"/><path d="M228 315q172-100 344 0v100H228z" fill="url(#hatch)" opacity=".26" stroke="none"/><path d="M230 334h340v82H230z" fill="#80907a"/><path d="M230 334h340v82H230z" fill="url(#hatch)" opacity=".26" stroke="none"/><path d="M215 417h370v20H215z" fill="#826442"/><path d="M215 417h370v20H215z" fill="url(#hatch)" opacity=".26" stroke="none"/><path d="M260 295q34-28 74 0v30h-74zm206 0q36-28 74 0v30h-74z" fill="#ede0be"/><path d="M260 295q34-28 74 0v30h-74zm206 0q36-28 74 0v30h-74z" fill="url(#hatch)" opacity=".26" stroke="none"/><path d="M355 356h90m-120 18h150m-120 18h90" stroke="#b7aa85"/></g></svg>