<svg xmlns="http://www.w3.org/2000/svg" viewBox="0 0 800 500"><defs><pattern id="grain" width="7" height="7" patternUnits="userSpaceOnUse"><path d="M0 2h2m3 3h1" stroke="#68583d" opacity=".11"/></pattern><pattern id="stone" width="38" height="22" patternUnits="userSpaceOnUse"><path d="M0 0h38v22H0zM19 0v11M0 11h38" fill="none" stroke="#6e6954" stroke-width=".7" opacity=".45"/></pattern><linearGradient id="sky" x2="0" y2="1"><stop stop-color="#bfc5b3"/><stop offset="1" stop-color="#e5d8b7"/></linearGradient><linearGradient id="paper" x2="1" y2="1"><stop stop-color="#e7d9b8"/><stop offset="1" stop-color="#beaa80"/></linearGradient><pattern id="hatch" width="6" height="6" patternUnits="userSpaceOnUse"><path d="M-1 1 1-1M0 6 6 0M5 7 7 5" stroke="#463d28" stroke-width=".6"/></pattern></defs><rect width="800" height="500" fill="url(#paper)"/><rect width="800" height="500" fill="url(#sky)"/><g opacity=".4" fill="#f6ead0"><ellipse cx="140" cy="80" rx="110" ry="16"/><ellipse cx="650" cy="110" rx="100" ry="15"/></g><path d="M0 392Q120 340 250 378T520 365T800 384V500H0" fill="#868774"/><path d="M0 392Q120 340 250 378T520 365T800 384V500H0" fill="url(#hatch)" opacity=".26" stroke="none"/><path d="M0 424Q160 375 290 411T800 402V500H0" fill="#555e4d"/><path d="M0 424Q160 375 290 411T800 402V500H0" fill="url(#hatch)" opacity=".26" stroke="none"/><g stroke="#4d5044" stroke-width="2"><path d="M178 387V172h18v-25h24v25h23v-25h24v25h22v-25h24v25h18v215z" fill="#a9a58a"/><path d="M178 387V172h18v-25h24v25h23v-25h24v25h22v-25h24v25h18v215z" fill="url(#hatch)" opacity=".26" stroke="none"/><path d="M518 388V172h18v-25h24v25h23v-25h24v25h22v-25h24v25h18v216z" fill="#a9a58a"/><path d="M518 388V172h18v-25h24v25h23v-25h24v25h22v-25h24v25h18v216z" fill="url(#hatch)" opacity=".26" stroke="none"/><path d="M272 394V258h256v136" fill="#b9b092"/><path d="M272 394V258h256v136" fill="url(#hatch)" opacity=".26" stroke="none"/><path d="M310 382V119h26V88h26v31h26V88h26v31h26V88h26v31h26v263" fill="#c7bea0"/><path d="M310 382V119h26V88h26v31h26V88h26v31h26V88h26v31h26v263" fill="url(#hatch)" opacity=".26" stroke="none"/><path d="M178 387V172h153v215M518 388V172h153v216M310 382V119h182v263" fill="url(#stone)"/><path d="M370 261v-77q30-45 60 0v77z" fill="#353d36"/><path d="M370 261v-77q30-45 60 0v77z" fill="url(#hatch)" opacity=".26" stroke="none"/><path d="M350 397v-49q50-66 100 0v49" fill="#3e4033"/><path d="M350 397v-49q50-66 100 0v49" fill="url(#hatch)" opacity=".26" stroke="none"/><path d="M207 253v-39q16-23 32 0v39zm355 0v-39q16-23 32 0v39z" fill="#4f5547"/><path d="M207 253v-39q16-23 32 0v39zm355 0v-39q16-23 32 0v39z" fill="url(#hatch)" opacity=".26" stroke="none"/><path d="M310 130h182M310 279h182M320 287h162"/><path d="M401 88V32l53 15-53 18" fill="#743a35"/><path d="M401 88V32l53 15-53 18" fill="url(#hatch)" opacity=".26" stroke="none"/><path d="M323 302h28v65h-28zm126 0h28v65h-28z" fill="#848572"/><path d="M323 302h28v65h-28zm126 0h28v65h-28z" fill="url(#hatch)" opacity=".26" stroke="none"/></g><g fill="#394939"><path d="M80 402V290l-33 98h66l-33-66-44 91h88zM724 416V290l-33 98h66l-33-66-44 91h88z"/></g><path d="M350 397l-96 103h298L450 397" fill="#a79c7b" opacity=".6"/><path d="M350 397l-96 103h298L450 397" fill="url(#hatch)" opacity=".26" stroke="none"/><rect width="800" height="500" fill="url(#grain)"/></svg>