<svg xmlns="http://www.w3.org/2000/svg" viewBox="0 0 1440 1000"><defs><linearGradient id="sky" x2="0" y2="1"><stop stop-color="#101b30"/><stop offset="1" stop-color="#314361"/></linearGradient><linearGradient id="stone" x2="1" y2="0"><stop stop-color="#202b42"/><stop offset=".5" stop-color="#4e5263"/><stop offset="1" stop-color="#1d293f"/></linearGradient><linearGradient id="light" x2="0" y2="1"><stop stop-color="#ffdf9a"/><stop offset="1" stop-color="#ac7139"/></linearGradient><pattern id="masonry" width="64" height="35" patternUnits="userSpaceOnUse"><path d="M0 0h64v35H0M32 0v17M0 17h64" stroke="#c8b28a" opacity=".12" fill="none"/></pattern></defs><rect width="1440" height="1000" fill="#211c23"/><rect width="1440" height="1000" fill="url(#masonry)"/><path d="M30 1000V320q80-160 160 0v680" fill="#141927" stroke="#846d52" stroke-width="9"/><path d="M50 1000V330q60-120 120 0v670" fill="none" stroke="#554e4c" stroke-width="4"/><path d="M1250 1000V320q80-160 160 0v680" fill="#141927" stroke="#846d52" stroke-width="9"/><path d="M1270 1000V330q60-120 120 0v670" fill="none" stroke="#554e4c" stroke-width="4"/><path d="M0 0v180q70 85 200 20V0m1240 0v200q130 65 200-20V0" fill="#442e35"/><path d="M0 85q90 65 200 28m1040 0q110 37 200-28" fill="none" stroke="#c29d6755" stroke-width="4"/><path d="M0 900h1440v100H0" fill="#191923"/><path d="M0 900h1440" stroke="#71614b" stroke-width="5"/></svg>