<svg xmlns="http://www.w3.org/2000/svg" viewBox="0 0 1440 1000"><defs><linearGradient id="sky" x2="0" y2="1"><stop stop-color="#101b30"/><stop offset="1" stop-color="#314361"/></linearGradient><linearGradient id="stone" x2="1" y2="0"><stop stop-color="#202b42"/><stop offset=".5" stop-color="#4e5263"/><stop offset="1" stop-color="#1d293f"/></linearGradient><linearGradient id="light" x2="0" y2="1"><stop stop-color="#ffdf9a"/><stop offset="1" stop-color="#ac7139"/></linearGradient><pattern id="masonry" width="64" height="35" patternUnits="userSpaceOnUse"><path d="M0 0h64v35H0M32 0v17M0 17h64" stroke="#c8b28a" opacity=".12" fill="none"/></pattern></defs><rect width="1440" height="1000" fill="url(#sky)"/><circle cx="1250" cy="140" r="63" fill="#e5d2a2"/><circle cx="1230" cy="128" r="13" fill="#c0b78d" opacity=".25"/><circle cx="1268" cy="160" r="17" fill="#c0b78d" opacity=".25"/><path d="M0 950 150 840 270 915 460 780 710 905 950 790 1160 900 1300 850 1440 925v75H0" fill="#15273c"/><path d="M0 900h1440M0 925h1440" stroke="#a7987c" stroke-width="14"/><path d="M0 1000v-64q25-22 50 0v64" fill="#2c3448" stroke="#9e947b" stroke-width="3"/><path d="M65 1000v-64q25-22 50 0v64" fill="#2c3448" stroke="#9e947b" stroke-width="3"/><path d="M130 1000v-64q25-22 50 0v64" fill="#2c3448" stroke="#9e947b" stroke-width="3"/><path d="M195 1000v-64q25-22 50 0v64" fill="#2c3448" stroke="#9e947b" stroke-width="3"/><path d="M260 1000v-64q25-22 50 0v64" fill="#2c3448" stroke="#9e947b" stroke-width="3"/><path d="M325 1000v-64q25-22 50 0v64" fill="#2c3448" stroke="#9e947b" stroke-width="3"/><path d="M390 1000v-64q25-22 50 0v64" fill="#2c3448" stroke="#9e947b" stroke-width="3"/><path d="M455 1000v-64q25-22 50 0v64" fill="#2c3448" stroke="#9e947b" stroke-width="3"/><path d="M520 1000v-64q25-22 50 0v64" fill="#2c3448" stroke="#9e947b" stroke-width="3"/><path d="M585 1000v-64q25-22 50 0v64" fill="#2c3448" stroke="#9e947b" stroke-width="3"/><path d="M650 1000v-64q25-22 50 0v64" fill="#2c3448" stroke="#9e947b" stroke-width="3"/><path d="M715 1000v-64q25-22 50 0v64" fill="#2c3448" stroke="#9e947b" stroke-width="3"/><path d="M780 1000v-64q25-22 50 0v64" fill="#2c3448" stroke="#9e947b" stroke-width="3"/><path d="M845 1000v-64q25-22 50 0v64" fill="#2c3448" stroke="#9e947b" stroke-width="3"/><path d="M910 1000v-64q25-22 50 0v64" fill="#2c3448" stroke="#9e947b" stroke-width="3"/><path d="M975 1000v-64q25-22 50 0v64" fill="#2c3448" stroke="#9e947b" stroke-width="3"/><path d="M1040 1000v-64q25-22 50 0v64" fill="#2c3448" stroke="#9e947b" stroke-width="3"/><path d="M1105 1000v-64q25-22 50 0v64" fill="#2c3448" stroke="#9e947b" stroke-width="3"/><path d="M1170 1000v-64q25-22 50 0v64" fill="#2c3448" stroke="#9e947b" stroke-width="3"/><path d="M1235 1000v-64q25-22 50 0v64" fill="#2c3448" stroke="#9e947b" stroke-width="3"/><path d="M1300 1000v-64q25-22 50 0v64" fill="#2c3448" stroke="#9e947b" stroke-width="3"/><path d="M1365 1000v-64q25-22 50 0v64" fill="#2c3448" stroke="#9e947b" stroke-width="3"/><path d="M1430 1000v-64q25-22 50 0v64" fill="#2c3448" stroke="#9e947b" stroke-width="3"/><path d="M0 0h110v1000H0m1330-1000h110v1000h-110" fill="url(#stone)"/><path d="M0 0h1440v34H0" fill="#4d5262"/></svg>