<svg xmlns="http://www.w3.org/2000/svg" viewBox="0 0 800 500"><defs><pattern id="grain" width="7" height="7" patternUnits="userSpaceOnUse"><path d="M0 2h2m3 3h1" stroke="#68583d" opacity=".11"/></pattern><pattern id="stone" width="38" height="22" patternUnits="userSpaceOnUse"><path d="M0 0h38v22H0zM19 0v11M0 11h38" fill="none" stroke="#6e6954" stroke-width=".7" opacity=".45"/></pattern><linearGradient id="sky" x2="0" y2="1"><stop stop-color="#bfc5b3"/><stop offset="1" stop-color="#e5d8b7"/></linearGradient><linearGradient id="paper" x2="1" y2="1"><stop stop-color="#e7d9b8"/><stop offset="1" stop-color="#beaa80"/></linearGradient><pattern id="hatch" width="6" height="6" patternUnits="userSpaceOnUse"><path d="M-1 1 1-1M0 6 6 0M5 7 7 5" stroke="#463d28" stroke-width=".6"/></pattern></defs><rect width="800" height="500" fill="url(#paper)"/><g stroke="#665036" stroke-width="4"><path d="M284 185l160-37 151 37v120q-21 85-151 143-139-67-160-143z" fill="#7f8a6c"/><path d="M284 185l160-37 151 37v120q-21 85-151 143-139-67-160-143z" fill="url(#hatch)" opacity=".26" stroke="none"/><path d="M305 201l139-30 130 30v97q-24 75-130 126-116-53-139-126z" fill="none" stroke="#bda56a" stroke-width="9"/><path d="M445 184v218m-104-148h211" stroke="#bda56a" stroke-width="21"/><path d="M210 76l39 8 79 235-38 13z" fill="#c8c2a8"/><path d="M210 76l39 8 79 235-38 13z" fill="url(#hatch)" opacity=".26" stroke="none"/><path d="M270 329l78-27" stroke-width="18"/><path d="M306 323l22 74" stroke-width="21"/><circle cx="332" cy="409" r="16" fill="#b49a65"/><circle cx="332" cy="409" r="16" fill="url(#hatch)" opacity=".26" stroke="none"/></g><rect width="800" height="500" fill="url(#grain)"/></svg>